# xmcd
#
# Track frame offsets:
#	150
#	12572
#	24840
#	42580
#	59215
#	71402
#	89495
#	104400
#	118495
#	134512
#	148375
#	166862
#
# Disc length: 2493 seconds
#
# Revision: 2
# Processed by: cddbd v1.4PL0 Copyright (c) Steve Scherf et al.
# Submitted via: CDmax 1.9
#
DISCID=bb09bb0c
DTITLE=Bob Woodruff - Desire Road
DYEAR=1997
DGENRE=Country
TTITLE0=Almost Saturday Night
TTITLE1=Out Of The Blue
TTITLE2=That Was Then
TTITLE3=I'm Losing You
TTITLE4=Remember To Forget
TTITLE5=All That Love Has Worn Away
TTITLE6=I Want You
TTITLE7=Everyday I Have To Cry
TTITLE8=Perfect World
TTITLE9=Cry Behind The Wheel
TTITLE10=If It's Really Got To Be This Way
TTITLE11=River's Edge
EXTD=
EXTT0=
EXTT1=
EXTT2=
EXTT3=
EXTT4=
EXTT5=
EXTT6=
EXTT7=
EXTT8=
EXTT9=
EXTT10=
EXTT11=
PLAYORDER=
